<?xml version="1.0" encoding="UTF-8" standalone="no"?> <svg width="64" height="64" viewBox="0 0 64 64" fill="none" xmlns="http://www.w3.org/2000/svg">
<path d="M46 16.0701V11.4801C46 10.3149 45.5378 9.19721 44.7148 8.37234C43.8918 7.54747 42.7752 7.08273 41.61 7.08008H25.25C24.0848 7.08273 22.9682 7.54747 22.1452 8.37234C21.3222 9.19721 20.86 10.3149 20.86 11.4801V16.0701C20.86 16.3353 20.9653 16.5896 21.1529 16.7772C21.3404 16.9647 21.5948 17.0701 21.86 17.0701H45C45.2652 17.0701 45.5196 16.9647 45.7071 16.7772C45.8946 16.5896 46 16.3353 46 16.0701ZM22.85 15.0701V11.4701C22.85 10.8353 23.1015 10.2263 23.5494 9.77655C23.9973 9.32675 24.6052 9.07272 25.24 9.07008H41.62C42.2548 9.07536 42.8616 9.33192 43.3077 9.7836C43.7537 10.2353 44.0027 10.8453 44 11.4801V15.0801L22.85 15.0701Z" fill="#5C5D60"/>
<path d="M61.4399 25.53C61.1747 25.53 60.9204 25.6354 60.7328 25.8229C60.5453 26.0105 60.4399 26.2648 60.4399 26.53C60.4347 28.7951 59.5318 30.9657 57.9293 32.5664C56.3267 34.1671 54.155 35.0674 51.8899 35.07H15C12.7341 35.07 10.5609 34.1706 8.95772 32.5693C7.35457 30.9681 6.4526 28.7959 6.44995 26.53C6.44995 26.2648 6.34459 26.0105 6.15706 25.8229C5.96952 25.6354 5.71517 25.53 5.44995 25.53C5.18473 25.53 4.93038 25.6354 4.74284 25.8229C4.55531 26.0105 4.44995 26.2648 4.44995 26.53V52.31C4.45259 53.5743 4.95599 54.786 5.84997 55.68C6.74395 56.574 7.95568 57.0774 9.21995 57.08H57.6699C58.9342 57.0774 60.146 56.574 61.0399 55.68C61.9339 54.786 62.4373 53.5743 62.4399 52.31V26.54C62.4413 26.4079 62.4164 26.2768 62.3667 26.1543C62.3171 26.0318 62.2436 25.9204 62.1506 25.8264C62.0576 25.7325 61.9469 25.658 61.825 25.6071C61.703 25.5562 61.5721 25.53 61.4399 25.53V25.53Z" fill="#A67C52"/>
<path d="M62.4399 19.8501C62.4373 18.5858 61.9339 17.3741 61.0399 16.4801C60.1459 15.5861 58.9342 15.0827 57.6699 15.0801H9.20994C7.94567 15.0827 6.73394 15.5861 5.83996 16.4801C4.94598 17.3741 4.44258 18.5858 4.43994 19.8501V26.5401C4.44524 29.3373 5.56015 32.0181 7.53996 33.9942C9.51977 35.9703 12.2027 37.0801 14.9999 37.0801H29.9999C34.4399 37.0801 47.2599 37.0801 51.8799 37.0801C54.6772 37.0801 57.3601 35.9703 59.3399 33.9942C61.3197 32.0181 62.4346 29.3373 62.4399 26.5401V19.8501Z" fill="#863D11"/>
<path d="M36.87 35.0801H30C29.7348 35.0801 29.4804 35.1854 29.2929 35.373C29.1054 35.5605 29 35.8149 29 36.0801V42.9401C29 43.2053 29.1054 43.4596 29.2929 43.6472C29.4804 43.8347 29.7348 43.9401 30 43.9401H36.86C37.1252 43.9401 37.3796 43.8347 37.5671 43.6472C37.7546 43.4596 37.86 43.2053 37.86 42.9401V36.0901C37.8613 35.9588 37.8368 35.8285 37.7877 35.7066C37.7387 35.5848 37.6661 35.4738 37.5742 35.38C37.4823 35.2862 37.3728 35.2115 37.2519 35.16C37.1311 35.1085 37.0013 35.0814 36.87 35.0801Z" fill="#A9B3B6"/>
<path d="M36.87 46.1702H30C29.7348 46.1702 29.4804 46.2755 29.2929 46.4631C29.1054 46.6506 29 46.9049 29 47.1702C29 47.4354 29.1054 47.6897 29.2929 47.8773C29.4804 48.0648 29.7348 48.1702 30 48.1702H36.86C37.1252 48.1715 37.3801 48.0674 37.5686 47.8808C37.757 47.6942 37.8637 47.4404 37.865 47.1752C37.8663 46.91 37.7622 46.6551 37.5756 46.4666C37.389 46.2781 37.1352 46.1715 36.87 46.1702V46.1702Z" fill="#A9B3B6"/>
</svg>
